<?xml version="1.0" encoding="utf-8"?>
<!-- Generator: Adobe Illustrator 16.0.0, SVG Export Plug-In . SVG Version: 6.00 Build 0)  -->
<!DOCTYPE svg PUBLIC "-//W3C//DTD SVG 1.1//EN" "http://www.w3.org/Graphics/SVG/1.1/DTD/svg11.dtd">
<svg version="1.1" id="Layer_1" xmlns="http://www.w3.org/2000/svg" xmlns:xlink="http://www.w3.org/1999/xlink" x="0px" y="0px"
	 width="24px" height="24px" viewBox="0 0 24 24" xml:space="preserve">
<g transform="translate(0,-952.36218)">
	<path d="M19.936,956.938c-0.703,0-1.279,0.576-1.279,1.28c0,0.348,0.141,0.665,0.367,0.896l-3.735,5.601
		c-0.147-0.059-0.306-0.096-0.472-0.096c-0.453,0-0.853,0.242-1.08,0.6l-3.344-1.464c0.044-0.129,0.072-0.272,0.072-0.416
		c0-0.704-0.576-1.28-1.28-1.28c-0.704,0-1.28,0.576-1.28,1.28c0,0.344,0.138,0.658,0.36,0.888l-3.704,5.103
		c-0.002,0-0.006,0-0.008,0c-0.151-0.062-0.315-0.104-0.488-0.104c-0.704,0-1.28,0.576-1.28,1.279c0,0.705,0.576,1.281,1.28,1.281
		c0.704,0,1.28-0.576,1.28-1.281c0-0.346-0.143-0.656-0.368-0.887l3.704-5.096c0.155,0.067,0.325,0.097,0.504,0.097
		c0.371,0,0.702-0.163,0.936-0.417l3.432,1.504c-0.009,0.062-0.016,0.125-0.016,0.191c0,0.705,0.576,1.281,1.28,1.281
		c0.703,0,1.279-0.576,1.279-1.281c0-0.352-0.144-0.671-0.375-0.904l3.728-5.592c0.151,0.063,0.314,0.096,0.487,0.096
		c0.704,0,1.28-0.576,1.28-1.28C21.216,957.514,20.64,956.938,19.936,956.938L19.936,956.938z M19.936,957.45
		c0.428,0,0.769,0.341,0.769,0.768c0,0.427-0.341,0.768-0.769,0.768c-0.427,0-0.768-0.341-0.768-0.768
		C19.168,957.791,19.509,957.45,19.936,957.45z M9.184,962.57c0.427,0,0.768,0.341,0.768,0.768s-0.341,0.768-0.768,0.768
		s-0.768-0.341-0.768-0.768S8.757,962.57,9.184,962.57z M14.816,965.13c0.427,0,0.768,0.339,0.768,0.767s-0.341,0.768-0.768,0.768
		c-0.428,0-0.769-0.34-0.769-0.768S14.389,965.13,14.816,965.13z M4.064,969.737c0.427,0,0.768,0.342,0.768,0.768
		c0,0.428-0.341,0.77-0.768,0.77s-0.768-0.342-0.768-0.77C3.296,970.079,3.637,969.737,4.064,969.737z"/>
</g>
<text transform="matrix(1 0 0 1 8.6909 20.8965)" fill="none" font-family="'HelveticaNeue-Bold'" font-size="1.28">Created by Barracuda</text>
<text transform="matrix(1 0 0 1 8.6909 22.1758)" fill="none" font-family="'HelveticaNeue-Bold'" font-size="1.28">from the Noun Project</text>
</svg>
