<?xml version="1.0" encoding="utf-8"?>
<!-- Generator: Adobe Illustrator 22.0.0, SVG Export Plug-In . SVG Version: 6.00 Build 0)  -->
<svg version="1.1" id="Layer_1" xmlns="http://www.w3.org/2000/svg" xmlns:xlink="http://www.w3.org/1999/xlink" x="0px" y="0px"
	 viewBox="0 0 197 297" style="enable-background:new 0 0 197 297;" xml:space="preserve">
<path d="M128,298c-2.7,0-5.3,0-8,0c-7.4-3.4-10-9.3-10-17.3c-0.1-14.6-0.8-29.3-1.2-43.9c-0.1-1.9-0.3-3.8-0.5-5.7
	c-5.9,0-11.1,0-16.9,0c-0.1,2.2-0.2,4.1-0.3,6.1c-0.4,14.5-1.1,29-1.2,43.4c-0.1,7.8-2.5,13.9-9.8,17.4c-2.7,0-5.3,0-8,0
	c-6.7-3.2-8.8-8.8-8.8-15.8c0.1-13.3-0.3-26.6-0.4-39.9c0-3.6,0-7.2,0-11.4c-5.3,0-9.9,0-14.6,0c4.3-35.4,8.6-70.1,13-106
	c-2,1.9-3.3,3-4.4,4.1c-7.8,8-15.6,16-23.4,23.9c-9.3,9.5-17,8.9-24.4-1.8c0-2.3,0-4.7,0-7c1.7-2.4,3-5.2,5.1-7.3
	c16-16.5,32.2-32.8,48.3-49.2c4.6-4.7,10-6.8,16.6-6.7c13.3,0.2,26.7,0.3,40,0c8.3-0.2,14.7,2.6,20.4,8.5
	c14.8,15.3,29.9,30.4,44.8,45.7c2.6,2.7,4.6,6,6.9,9.1c0,2.3,0,4.7,0,7c-8.4,11.2-14.9,11.5-25,1.3c-7.8-7.9-15.6-15.9-23.5-23.9
	c-1-1-2.1-1.8-4-3.6c4.4,36,8.6,70.8,13,106.2c-5.1,0-9.5,0-14.3,0c0,2.4,0,4.2,0,6c-0.3,15-0.7,30-0.7,44.9
	C136.5,289.1,134.5,294.6,128,298z M94,1c-0.9,0.3-1.8,0.8-2.7,1C77.1,6.1,68,15.3,64.5,29.5c-1.2,4.9-0.9,10.2-1.2,15.5
	c-18.5,7.8-30.2,21.5-27.7,33.2c15-2.2,24.5-11.4,30.9-24.7c7.4,13.7,18.2,21.6,33.8,21.5c15.4-0.1,26-8.2,33.3-21.5
	c6.5,13.6,16.1,22.5,32.1,24.9c-2.9-18.2-13.7-28-29.5-33.6c0.1-1.2,0.1-2.6,0.2-3.9c1.4-16.2-8.3-31.7-23.4-37.6
	c-2.3-0.9-4.7-1.6-7-2.4C102,1,98,1,94,1z" style="fill: #f2cc51"/>
</svg>
